<svg xmlns="http://www.w3.org/2000/svg"  viewBox="0 0 64 64" width="64px" height="64px"><radialGradient id="z_eb5rfGA7sKZWWSEl1~Xa" cx="32" cy="34.5" r="51.925" gradientTransform="matrix(1 0 0 -1 0 66)" gradientUnits="userSpaceOnUse"><stop offset="0" stop-color="#9ceeff"/><stop offset=".642" stop-color="#c5f5ff"/><stop offset="1" stop-color="#dcf9ff"/></radialGradient><path fill="url(#z_eb5rfGA7sKZWWSEl1~Xa)" d="M60.5,30c1.995,0,3.6-1.669,3.495-3.688C63.896,24.419,62.197,23,60.302,23H59.5	c-0.828,0-1.5-0.671-1.5-1.5s0.672-1.5,1.5-1.5h0.802c1.895,0,3.594-1.419,3.693-3.312C64.1,14.669,62.495,13,60.5,13h-1.393	c-0.996,0-1.92-0.681-2.08-1.664C56.823,10.083,57.785,9,59,9h0.302c1.895,0,3.594-1.419,3.693-3.312C63.101,3.669,61.495,2,59.5,2	H4.698C2.803,2,1.104,3.419,1.005,5.312C0.899,7.331,2.505,9,4.5,9h0.393c0.996,0,1.92,0.681,2.08,1.664C7.177,11.917,6.215,13,5,13	H3.698c-1.895,0-3.594,1.419-3.693,3.312C-0.101,18.331,1.505,20,3.5,20C4.328,20,5,20.671,5,21.5S4.328,23,3.5,23h0.198	c-1.895,0-3.594,1.419-3.693,3.312C-0.101,28.331,1.505,30,3.5,30l0,0C4.328,30,5,30.672,5,31.5l0,0C5,32.328,4.328,33,3.5,33l0,0	c-1.995,0-3.6,1.669-3.495,3.688C0.104,38.581,1.803,40,3.698,40H4.5C5.328,40,6,40.671,6,41.5C6,42.328,5.328,43,4.5,43H3.698	c-1.895,0-3.594,1.419-3.693,3.312C-0.101,48.331,1.505,50,3.5,50h1.393c0.996,0,1.92,0.681,2.08,1.664C7.176,52.917,6.215,54,5,54	H4.698c-1.895,0-3.594,1.419-3.693,3.312C0.899,59.331,2.505,61,4.5,61h54.802c1.895,0,3.594-1.419,3.693-3.312	C63.1,55.669,61.495,54,59.5,54H59c-1.105,0-2-0.896-2-2l0,0c0-1.104,0.895-2,2-2h1.302c1.895,0,3.594-1.419,3.693-3.312	C64.1,44.669,62.495,43,60.5,43c-0.828,0-1.5-0.672-1.5-1.5l0,0c0-0.829,0.672-1.5,1.5-1.5h-0.198c1.895,0,3.594-1.419,3.693-3.312	C64.101,34.669,62.495,33,60.5,33l0,0c-0.828,0-1.5-0.672-1.5-1.5l0,0C59,30.672,59.672,30,60.5,30L60.5,30z"/><linearGradient id="z_eb5rfGA7sKZWWSEl1~Xb" x1="32" x2="32" y1="-44.982" y2="38.798" gradientTransform="matrix(1 0 0 -1 0 66)" gradientUnits="userSpaceOnUse"><stop offset="0" stop-color="#dbdee1"/><stop offset=".085" stop-color="#dee1e4"/><stop offset=".606" stop-color="#eff1f2"/><stop offset="1" stop-color="#f5f6f7"/></linearGradient><path fill="url(#z_eb5rfGA7sKZWWSEl1~Xb)" d="M56,20v26c0,5.52-4.48,10-10,10H18c-5.52,0-10-4.48-10-10V20H56z"/><linearGradient id="z_eb5rfGA7sKZWWSEl1~Xc" x1="32" x2="32" y1="13.257" y2="72.758" gradientTransform="matrix(1 0 0 -1 0 66)" gradientUnits="userSpaceOnUse"><stop offset="0" stop-color="#feaa53"/><stop offset=".612" stop-color="#ffcd49"/><stop offset="1" stop-color="#ffde44"/></linearGradient><path fill="url(#z_eb5rfGA7sKZWWSEl1~Xc)" d="M56,18v3H8v-3c0-5.52,4.48-10,10-10h28C51.52,8,56,12.48,56,18z"/><linearGradient id="z_eb5rfGA7sKZWWSEl1~Xd" x1="11.5" x2="11.5" y1="32.675" y2="46.406" gradientTransform="matrix(1 0 0 -1 0 66)" gradientUnits="userSpaceOnUse"><stop offset="0" stop-color="#dbdee1"/><stop offset="1" stop-color="#dee1e4"/></linearGradient><circle cx="11.5" cy="24.5" r="1.5" fill="url(#z_eb5rfGA7sKZWWSEl1~Xd)"/><linearGradient id="z_eb5rfGA7sKZWWSEl1~Xe" x1="16.625" x2="16.625" y1="32.675" y2="46.406" gradientTransform="matrix(1 0 0 -1 0 66)" gradientUnits="userSpaceOnUse"><stop offset="0" stop-color="#dbdee1"/><stop offset="1" stop-color="#dee1e4"/></linearGradient><circle cx="16.625" cy="24.5" r="1.5" fill="url(#z_eb5rfGA7sKZWWSEl1~Xe)"/><linearGradient id="z_eb5rfGA7sKZWWSEl1~Xf" x1="21.75" x2="21.75" y1="32.675" y2="46.406" gradientTransform="matrix(1 0 0 -1 0 66)" gradientUnits="userSpaceOnUse"><stop offset="0" stop-color="#dbdee1"/><stop offset="1" stop-color="#dee1e4"/></linearGradient><circle cx="21.75" cy="24.5" r="1.5" fill="url(#z_eb5rfGA7sKZWWSEl1~Xf)"/><linearGradient id="z_eb5rfGA7sKZWWSEl1~Xg" x1="26.875" x2="26.875" y1="32.675" y2="46.406" gradientTransform="matrix(1 0 0 -1 0 66)" gradientUnits="userSpaceOnUse"><stop offset="0" stop-color="#dbdee1"/><stop offset="1" stop-color="#dee1e4"/></linearGradient><circle cx="26.875" cy="24.5" r="1.5" fill="url(#z_eb5rfGA7sKZWWSEl1~Xg)"/><linearGradient id="z_eb5rfGA7sKZWWSEl1~Xh" x1="32" x2="32" y1="32.675" y2="46.406" gradientTransform="matrix(1 0 0 -1 0 66)" gradientUnits="userSpaceOnUse"><stop offset="0" stop-color="#dbdee1"/><stop offset="1" stop-color="#dee1e4"/></linearGradient><circle cx="32" cy="24.5" r="1.5" fill="url(#z_eb5rfGA7sKZWWSEl1~Xh)"/><linearGradient id="z_eb5rfGA7sKZWWSEl1~Xi" x1="37.125" x2="37.125" y1="32.675" y2="46.406" gradientTransform="matrix(1 0 0 -1 0 66)" gradientUnits="userSpaceOnUse"><stop offset="0" stop-color="#dbdee1"/><stop offset="1" stop-color="#dee1e4"/></linearGradient><circle cx="37.125" cy="24.5" r="1.5" fill="url(#z_eb5rfGA7sKZWWSEl1~Xi)"/><linearGradient id="z_eb5rfGA7sKZWWSEl1~Xj" x1="42.25" x2="42.25" y1="32.675" y2="46.406" gradientTransform="matrix(1 0 0 -1 0 66)" gradientUnits="userSpaceOnUse"><stop offset="0" stop-color="#dbdee1"/><stop offset="1" stop-color="#dee1e4"/></linearGradient><circle cx="42.25" cy="24.5" r="1.5" fill="url(#z_eb5rfGA7sKZWWSEl1~Xj)"/><linearGradient id="z_eb5rfGA7sKZWWSEl1~Xk" x1="47.375" x2="47.375" y1="32.675" y2="46.406" gradientTransform="matrix(1 0 0 -1 0 66)" gradientUnits="userSpaceOnUse"><stop offset="0" stop-color="#dbdee1"/><stop offset="1" stop-color="#dee1e4"/></linearGradient><circle cx="47.375" cy="24.5" r="1.5" fill="url(#z_eb5rfGA7sKZWWSEl1~Xk)"/><linearGradient id="z_eb5rfGA7sKZWWSEl1~Xl" x1="52.5" x2="52.5" y1="32.675" y2="46.406" gradientTransform="matrix(1 0 0 -1 0 66)" gradientUnits="userSpaceOnUse"><stop offset="0" stop-color="#dbdee1"/><stop offset="1" stop-color="#dee1e4"/></linearGradient><circle cx="52.5" cy="24.5" r="1.5" fill="url(#z_eb5rfGA7sKZWWSEl1~Xl)"/><linearGradient id="z_eb5rfGA7sKZWWSEl1~Xm" x1="32" x2="32" y1="32.33" y2="34.33" gradientTransform="matrix(1 0 0 -1 0 66)" gradientUnits="userSpaceOnUse"><stop offset="0" stop-color="#dbdee1"/><stop offset="1" stop-color="#dee1e4"/></linearGradient><rect width="48" height="2" x="8" y="31.67" fill="url(#z_eb5rfGA7sKZWWSEl1~Xm)"/><linearGradient id="z_eb5rfGA7sKZWWSEl1~Xn" x1="32" x2="32" y1="20.67" y2="22.67" gradientTransform="matrix(1 0 0 -1 0 66)" gradientUnits="userSpaceOnUse"><stop offset="0" stop-color="#dbdee1"/><stop offset="1" stop-color="#dee1e4"/></linearGradient><rect width="48" height="2" x="8" y="43.33" fill="url(#z_eb5rfGA7sKZWWSEl1~Xn)"/><linearGradient id="z_eb5rfGA7sKZWWSEl1~Xo" x1="17.999" x2="17.999" y1="19.497" y2="60.807" gradientTransform="matrix(1 0 0 -1 0 66)" gradientUnits="userSpaceOnUse"><stop offset="0" stop-color="#fcb368"/><stop offset=".612" stop-color="#fdd360"/><stop offset="1" stop-color="#ffe15c"/></linearGradient><path fill="url(#z_eb5rfGA7sKZWWSEl1~Xo)" d="M26,12h-7.5c-0.83,0-1.5,0.67-1.5,1.5s0.67,1.5,1.5,1.5H19c1.85,0,3.31,1.68,2.94,3.59	c-0.27,1.43-1.6,2.41-3.05,2.41H8v-3c0-5.52,4.48-10,10-10h7.89c1,0,1.92,0.68,2.08,1.66C28.18,10.92,27.21,12,26,12z"/></svg>